<?xml version="1.0" encoding="UTF-8"?>
<svg width="60px" height="41px" viewBox="0 0 60 41" version="1.1" xmlns="http://www.w3.org/2000/svg" xmlns:xlink="http://www.w3.org/1999/xlink">
    <title>Logos/Adidas (#FFF White)</title>
    <g id="Page-1" stroke="none" stroke-width="1" fill="none" fill-rule="evenodd">
        <g id="Artboard" transform="translate(-125.000000, -99.000000)">
            <g id="Logos/Adidas-(#FFF-White)" transform="translate(125.000000, 99.000000)">
                <g id="adidas-BOS_header-60pxW">
                    <rect id="Rectangle-path" x="0" y="0" width="60" height="41"></rect>
                    <path d="M39.38,26.42 L51.19,26.42 L35.92,0 L27.1,5.09 L39.38,26.42 L39.38,26.42 Z M26.34,28.95 L26.34,26.43 L35.62,26.43 L25.72,9.29 L16.87,14.36 L23.81,26.43 L23.81,28.95 L26.34,28.95 L26.34,28.95 Z M6.56,23.42 L8.27,26.42 L20.06,26.42 L15.39,18.35 L6.56,23.42 L6.56,23.42 Z M35.63,26.42 L35.63,30.69 C34.78,30.09 33.74,29.76 32.63,29.76 C29.73,29.76 27.38,32.11 27.38,35.01 C27.38,37.93 29.73,40.26 32.63,40.26 C33.74,40.26 34.78,39.92 35.63,39.33 L35.63,40.05 L38.15,40.05 L38.15,26.42 L35.63,26.42 L35.63,26.42 Z M20.06,26.42 L20.06,30.69 C19.21,30.09 18.17,29.76 17.06,29.76 C14.16,29.76 11.81,32.11 11.81,35.01 C11.81,37.93 14.16,40.26 17.06,40.26 C18.17,40.26 19.21,39.92 20.06,39.33 L20.06,40.05 L22.58,40.05 L22.58,26.42 L20.06,26.42 L20.06,26.42 Z M50.89,36.74 C50.97,38.79 52.72,40.24 55.64,40.24 C58.03,40.24 59.99,39.21 59.99,36.92 C59.99,35.33 59.1,34.4 57.03,34 L55.42,33.68 C54.39,33.48 53.67,33.28 53.67,32.67 C53.67,31.99 54.37,31.7 55.24,31.7 C56.51,31.7 57.03,32.34 57.07,33.09 L59.61,33.09 C59.47,31.1 57.88,29.77 55.32,29.77 C52.68,29.77 51.11,31.22 51.11,33.11 C51.11,35.42 52.98,35.79 54.59,36.09 L55.92,36.33 C56.87,36.51 57.29,36.79 57.29,37.34 C57.29,37.84 56.81,38.33 55.68,38.33 C54.03,38.33 53.49,37.48 53.47,36.74 L50.89,36.74 L50.89,36.74 Z M47.44,40.04 L49.96,40.04 L49.96,29.88 L47.44,29.88 L47.44,30.7 C46.59,30.1 45.55,29.77 44.44,29.77 C41.54,29.77 39.19,32.12 39.19,35.02 C39.19,37.94 41.54,40.27 44.44,40.27 C45.55,40.27 46.59,39.93 47.44,39.34 L47.44,40.04 L47.44,40.04 Z M8.25,40.04 L10.77,40.04 L10.77,29.88 L8.25,29.88 L8.25,30.7 C7.4,30.1 6.36,29.77 5.25,29.77 C2.35,29.77 0,32.12 0,35.02 C0,37.94 2.35,40.27 5.25,40.27 C6.36,40.27 7.4,39.93 8.25,39.34 L8.25,40.04 L8.25,40.04 Z M26.34,40.04 L26.34,29.88 L23.82,29.88 L23.82,40.04 L26.34,40.04 L26.34,40.04 Z M2.47,35.01 C2.47,33.4 3.76,32.11 5.37,32.11 C6.98,32.11 8.27,33.4 8.27,35.01 C8.27,36.62 6.98,37.91 5.37,37.91 C3.76,37.91 2.47,36.62 2.47,35.01 L2.47,35.01 Z M14.27,35.01 C14.27,33.4 15.56,32.11 17.17,32.11 C18.78,32.11 20.07,33.4 20.07,35.01 C20.07,36.62 18.78,37.91 17.17,37.91 C15.57,37.91 14.27,36.62 14.27,35.01 L14.27,35.01 Z M41.65,35.01 C41.65,33.4 42.94,32.11 44.55,32.11 C46.16,32.11 47.45,33.4 47.45,35.01 C47.45,36.62 46.16,37.91 44.55,37.91 C42.94,37.91 41.65,36.62 41.65,35.01 L41.65,35.01 Z M29.84,35.01 C29.84,33.4 31.13,32.11 32.74,32.11 C34.35,32.11 35.64,33.4 35.64,35.01 C35.64,36.62 34.35,37.91 32.74,37.91 C31.13,37.91 29.84,36.62 29.84,35.01 L29.84,35.01 Z" id="Shape" fill="#FFFFFF" fill-rule="nonzero"></path>
                </g>
            </g>
        </g>
    </g>
</svg>